<?xml version="1.0" encoding="utf-8"?>
<!-- Generator: Adobe Illustrator 22.0.1, SVG Export Plug-In . SVG Version: 6.00 Build 0)  -->
<svg version="1.1" id="Layer_1" xmlns="http://www.w3.org/2000/svg" xmlns:xlink="http://www.w3.org/1999/xlink" x="0px" y="0px"
	 viewBox="0 0 508.4 81" style="enable-background:new 0 0 508.4 81;" xml:space="preserve">
<g>
	<path d="M456,11.1h-18.3c-0.7,0-1.4,0.6-1.6,1.1l-8.6,33.7L419,12.3c-0.2-0.6-0.8-1.1-1.6-1.1h-18.3c-0.7,0-1.1,0.6-0.8,1.1
		l3.4,9.8c-5.4-7.6-14.3-12.6-24.4-12.6c-15,0-27.5,11.2-29.6,25.6V12.4c0-0.7-0.5-1.2-1.2-1.2h-14.5c-0.6,0-1.1,0.6-1.1,1.2v25.3
		l-14.2-25.5c-0.3-0.7-1.1-1.1-1.9-1.1h-11.7l-3.3,0h-1.7v50.7l-35.4-50.7h-3.6v56.6h3.6V16.9l35.4,50.8h17.1c0.7,0,1.2-0.6,1.2-1.1
		V41.1l14.3,25.5c0.4,0.7,1.1,1.1,1.7,1.1h14.2c0.7,0,1.2-0.6,1.2-1.1V43.7c2.1,14.5,14.6,25.6,29.6,25.6
		c16.5,0,29.9-13.4,29.9-29.9c0-0.5,0-1,0-1.4l9.9,28.6c0.2,0.6,0.8,1.1,1.5,1.1h18c0.7,0,1.3-0.6,1.5-1.1l18.8-54.2
		C457.1,11.7,456.7,11.1,456,11.1z M377.4,52.5c-7.2,0-13.1-5.9-13.1-13.1s5.9-13.1,13.1-13.1s13.1,5.9,13.1,13.1
		S384.6,52.5,377.4,52.5z"/>
	<path d="M503.4,66.6l-18.5-54.4c-0.2-0.5-1.1-1.1-2-1.1h-16.7c-0.8,0-1.7,0.6-2,1.1l-18.5,54.4c-0.2,0.5,0.1,1.1,0.7,1.1h16.2
		c0.7,0,1.4-0.4,1.7-1.1l2.5-8.6h15.4l2.5,8.6c0.3,0.7,1,1.1,1.7,1.1h16.2C503.3,67.6,503.6,67.1,503.4,66.6z M470.1,46.3l4.4-15.6
		l4.4,15.6H470.1z"/>
	<polygon points="9,14.3 34.6,14.3 34.6,11.1 5.3,11.1 5.3,67.7 9,67.7 9,41.4 33.6,41.4 33.6,38.2 9,38.2 	"/>
	<path d="M56.9,11.1L34.5,67.7h3.7l5.9-15.3h28.1l5.9,15.3h3.7L59.6,11.1H56.9z M45.4,49.2l12.8-33.3l12.8,33.3H45.4z"/>
	<path d="M117.4,42.3c-1.6-1.4-3.4-2.6-5.4-3.7c-2-1-3.8-2-5.6-2.8c-2-0.9-3.7-1.8-5.1-2.6c-1.4-0.8-2.6-1.7-3.6-2.7
		c-1-0.9-1.7-2-2.2-3.1c-0.5-1.2-0.7-2.6-0.7-4.2c0-3.3,1.2-5.8,3.5-7.4c2.3-1.6,5.3-2.4,8.9-2.4c2.2,0,4.3,0.3,6.4,0.8
		c2.1,0.6,4.2,1.3,6.2,2.3l0.8-3.2c-1.9-1-4-1.7-6.3-2.3c-2.4-0.6-4.8-0.8-7.3-0.8c-2.1,0-4.1,0.3-6,0.8c-1.9,0.5-3.6,1.3-5.1,2.4
		c-1.5,1.1-2.6,2.5-3.5,4.1c-0.9,1.7-1.3,3.6-1.3,5.9c0,2.1,0.4,3.9,1.1,5.4c0.7,1.5,1.7,2.9,3,4.1c1.3,1.2,2.8,2.3,4.6,3.3
		c1.8,1,3.7,2,5.8,3c1.8,0.8,3.5,1.7,5.1,2.5c1.6,0.8,3.1,1.8,4.4,2.9c1.3,1.1,2.3,2.4,3.1,3.8c0.8,1.4,1.2,3.1,1.2,5.1
		c0,3.7-1.3,6.6-3.9,8.7c-2.6,2.1-6.1,3.2-10.5,3.2c-2.6,0-5-0.3-7.3-0.8c-2.3-0.5-4.6-1.3-6.9-2.3l-0.9,3.1c2,1,4.5,1.7,7.3,2.3
		c2.8,0.6,5.5,0.9,8,0.9c2.7,0,5.1-0.4,7.3-1.1c2.2-0.7,4.1-1.8,5.7-3.1c1.6-1.4,2.8-3,3.7-4.8c0.9-1.9,1.3-3.9,1.3-6.1
		c0-2.4-0.5-4.6-1.6-6.4C120.4,45.3,119,43.7,117.4,42.3z"/>
	<polygon points="167.2,37.3 132.7,37.3 132.7,11.1 128.9,11.1 128.9,67.7 132.7,67.7 132.7,40.7 167.2,40.7 167.2,67.7 170.9,67.7 
		170.9,11.1 167.2,11.1 	"/>
	<rect x="182.7" y="11.1" width="3.7" height="56.6"/>
	<path d="M225.2,10.2c-16.6,0-30.1,13.5-30.1,30.1c0,16.6,13.5,30.1,30.1,30.1c16.6,0,30.1-13.5,30.1-30.1
		C255.3,23.7,241.8,10.2,225.2,10.2z M225.2,66.4c-14.4,0-26.1-11.7-26.1-26.1c0-14.4,11.7-26.1,26.1-26.1s26.1,11.7,26.1,26.1
		C251.3,54.7,239.6,66.4,225.2,66.4z"/>
</g>
</svg>
