<?xml version="1.0" encoding="utf-8"?>
<!-- Generator: Adobe Illustrator 19.2.1, SVG Export Plug-In . SVG Version: 6.00 Build 0)  -->
<svg version="1.1" id="Layer_1" xmlns="http://www.w3.org/2000/svg" xmlns:xlink="http://www.w3.org/1999/xlink" x="0px" y="0px"
	 viewBox="0 0 110.5 33.5" style="enable-background:new 0 0 110.5 33.5;" xml:space="preserve">
<style type="text/css">
	.st0{fill:#FFFFFF;}
	.st1{fill:#E3000F;}
	.st2{fill:#009656;}
</style>
<g>
	<path class="st0" d="M24.4,11.3c-0.2,0.2-0.2,0.5,0,0.7c0.2,0.2,0.5,0.2,0.7,0s0.2-0.5,0-0.7C24.9,11.1,24.6,11.1,24.4,11.3"/>
	<path class="st1" d="M39.6,24.4c-0.4,0.5-1.4,1-2.3,1c-1.4,0-2.2-0.8-2.2-2.1v-9h-4.7V24c0,3.5,1.6,5.3,4.9,5.3
		c2.5,0,3.9-0.8,4.9-1.9l0.3,1.6h3.8V14.3h-4.7V24.4z M54.4,25.2c-2.3,0-3.6-1.5-3.6-3.7c0-2.1,1.2-3.4,3.5-3.4
		c1.2,0,2.2,0.3,3.1,0.9l0.7-4c-1.3-0.5-2.6-1-4.9-1c-4.7,0-7.3,2.7-7.3,7.6c0,5,2.4,7.5,7.2,7.5c2.3,0,4.5-0.7,5.4-1.3l-0.7-3.7
		C56.8,24.8,55.7,25.2,54.4,25.2 M68.9,14c-1.9,0-3.2,0.5-4.2,1.2V8.9h-4.9v20h4.7V18.8c0.4-0.5,1.4-1,2.3-1c1.4,0,2.2,0.8,2.2,2.1
		v9h4.7v-9.6C73.8,15.8,72.2,14,68.9,14 M100.7,14c-2.5,0-3.9,0.8-4.9,1.9l-0.3-1.6h-3.8v14.6h4.7V18.8c0.4-0.5,1.4-1,2.3-1
		c1.4,0,2.2,0.8,2.2,2.1v9h4.7v-9.6C105.6,15.8,104,14,100.7,14 M75.5,22.2c0,4.9,1.8,7,5.3,7c2.2,0,3.6-0.7,4.5-1.9l0.2,1.6h3.9
		v-14c-1.5-0.5-3.3-0.9-6.6-0.9C78.1,14,75.5,16.9,75.5,22.2 M84.6,24.4c-0.4,0.5-1.1,1-2.3,1c-1.3,0-2-1.2-2-3.5
		c0-2.8,0.8-4.2,2.3-4.2c0.9,0,1.3,0.1,2,0.2V24.4z M12.7,15.8l2.9-2.4c0.6-1.7,1.2-3.4,1.9-4.8c0.3,0.8,0.6,1.5,1,2.3
		c1.6-1.3,2.6-2.1,3.9-2.5c-0.8-1.8-1.4-3-1.7-3.6h-6.5c-0.5,1.2-2.6,5.4-5,11.2h2.3C12,16.2,12.4,16.1,12.7,15.8 M4.9,28.9h5.8
		l2-6.1H7C6.3,24.6,5.6,26.6,4.9,28.9 M22.3,23.2l2,5.7H30c-1.2-3.5-2.5-6.8-3.6-9.9C25.4,21.1,24.5,22.1,22.3,23.2 M24.9,19.7
		c1.8-2.9,2.4-7.5,2.4-7.5l-0.7-0.3c-0.1,0-0.1-0.1,0-0.2l0.5-0.6c-0.3-0.6-1.5-1.7-3.2-1.7c-1,0-1.9,0.3-2.7,0.8
		c0,0-1.2,0.8-2.8,2.2c-1.9,1.7-4.6,4.2-6.9,7.5c-0.1,0.1,0,0.2,0.1,0.2h3.1c2,0,4.6-0.4,7.3-3.2c0.1-0.1,0.1-0.1,0.2,0
		c0.1,0,0.1,0.1,0,0.2c-0.4,1-1.5,3.1-3.4,4.4h2.6C23.1,21.3,24.4,20.5,24.9,19.7 M23.6,12.8c-0.4-0.4-0.4-1.1,0-1.5
		c0.4-0.4,1.1-0.4,1.5,0c0.4,0.4,0.4,1.1,0,1.5C24.7,13.2,24,13.2,23.6,12.8"/>
	<path class="st2" d="M21.8,17.5c0.1-0.2,0.3-0.4,0.4-0.7c-0.1,0-0.1,0-0.2,0c-2.7,2.9-5.3,3.2-7.3,3.2h-3.1c-0.1,0-0.2-0.1-0.1-0.2
		c2.4-3.3,5-5.8,6.9-7.5l-5.1,4.3c-0.4,0.3-0.9,0.5-1.5,0.5H5.3c-0.2,0-0.1,0.2-0.1,0.2C5.7,18.8,6.9,20,9,20l-1.5,1.5
		c-0.1,0.1-0.1,0.2,0.1,0.2h5.8C17.5,21.8,20.1,20,21.8,17.5 M20,23.8l1.8,5.1h1.3l-1.9-5.3C20.8,23.7,20.4,23.7,20,23.8 M25.1,12
		c-0.2,0.2-0.5,0.2-0.7,0c-0.2-0.2-0.2-0.5,0-0.7s0.5-0.2,0.7,0c-0.4-0.4-1.1-0.4-1.5,0c-0.4,0.4-0.4,1.1,0,1.5
		c0.4,0.4,1.1,0.4,1.5,0c0.4-0.4,0.4-1.1,0-1.5C25.3,11.5,25.3,11.8,25.1,12 M21.4,21.3h-2.6c-0.7,0.4-0.9,0.5-1.8,0.9
		c-0.1,0-0.1,0.1-0.1,0.2l2.3,6.5h1.3l-2.1-6c1.4,0,4.7-0.4,6.5-3.3C24.4,20.5,23.1,21.3,21.4,21.3 M29.3,11h-2.1l-0.5,0.6
		c-0.1,0.1-0.1,0.2,0,0.2l0.7,0.3l2-0.9C29.5,11.2,29.4,11,29.3,11"/>
</g>
</svg>
