<svg id="logos-color" xmlns="http://www.w3.org/2000/svg" viewBox="0 0 180 150"><defs><style>.cls-1{fill:#ffb819;}</style></defs><title>continental</title><path class="cls-1" d="M164.52,73.75A7.17,7.17,0,0,0,164,72.4s.09-.09.26,0l1.28.87c.57.83.91,4.22.94,5.43a6.88,6.88,0,0,1-1.74-1.11Zm-3.35-3.15a24.68,24.68,0,0,1-2.41-3,9,9,0,0,0,.61-4.26,9.7,9.7,0,0,0-1-1.48c-.2-.2-.83-.91-1.13-.91a.25.25,0,0,0-.15,0l.09.8c-.85.54-2,1.28-3,2a8.66,8.66,0,0,0,0,.87,1.61,1.61,0,0,0,.52.3,13.34,13.34,0,0,1,1.93-.33l-1.19,1.8-1.37,1-1.72-.54a.27.27,0,0,0-.28.09l-1.26,1.37a.34.34,0,0,0-.11.28l0,1.54s0,.24,0,.5a2.43,2.43,0,0,0,.5,1.63l.83-1.2a3.76,3.76,0,0,1-.35-.87s0-1.32,0-1.32l.8-.59,2.13,1.5a11.89,11.89,0,0,0,1.15,1.74,19.46,19.46,0,0,0,3.11,2.22,12.88,12.88,0,0,0,.44,1.67L162,78.1,160.41,80a2,2,0,0,0-1,1.57h1.78l.2-1,2.13-2.37c.11-.13.11-.2,0-.39l-.61-2a3.67,3.67,0,0,0,1-2.26c0-1.89-2.07-2.37-2.72-2.91m-9.61-3.89-1.65.46a7.49,7.49,0,0,0-1.07.5c-.33.22-.7.59-.72.78l1.41.33a6.24,6.24,0,0,1,.67-.67l.33-.15,1.17-1.2a.14.14,0,0,0-.15,0m6.67,12.22,2-1.91.83.83-2.15,1.83a4.72,4.72,0,0,0-.41.78h-1.59a2.79,2.79,0,0,1,1.33-1.52m10.63,4H147.62v-.7h21.24Z"/><path class="cls-1" d="M62.52,83V81.6h1.33V69.77H62.52V68.44h5.91V81.6h1.35V83Zm69.63-1.74h-.07a4.3,4.3,0,0,1-3.72,2c-2.37,0-3.85-2-3.85-4.44,0-2.91,2.06-4.76,5.37-4.76a5.72,5.72,0,0,1,2.07.31v-.91a2.47,2.47,0,0,0-2.67-2.7,4.19,4.19,0,0,0-3.33,1.7l-.8-1a6.88,6.88,0,0,1,5.78-3.28c3.52,0,5.61,2.09,5.61,5.26V81.6H138V83h-5.87Zm-.2-5.46a1.36,1.36,0,0,0-1-.3c-1.37,0-1.67,1.35-1.67,2.74s.41,2.48,1.59,2.48a1.41,1.41,0,0,0,1.09-.44Zm12.26,5.83H146V83h-6.37V64.4H138V63.07h6.17ZM59.4,69.77V80.51a.82.82,0,0,0,.93.91,2.81,2.81,0,0,0,.85-.15V82.6a5.68,5.68,0,0,1-2.81.54c-2.26,0-3.59-1.11-3.59-3.46V69.77H53.25v-1c1.72-1.37,3.72-2.93,5.3-4.26h.85v3.91h1.78v1.32Zm4-5.17c0,1.28,1.15,2.13,2.81,2.13s2.8-.85,2.8-2.13-1.15-2.13-2.8-2.13-2.81.85-2.81,2.13M46.92,73c0-1.3-.41-2.33-1.54-2.33s-1.59,1-1.59,2.33V81.6h1.33V83H37.85V81.6H39.2V69.77H37.85V68.44h5.72v2.22h.06a4.13,4.13,0,0,1,3.83-2.5,3.76,3.76,0,0,1,3.85,3,13,13,0,0,1,.19,2.35V81.6h1.74V83H46.92ZM22,75.7c0,4.39,2.7,8,7.31,8s7.3-3.56,7.3-8-2.7-8-7.3-8S22,71.31,22,75.7m5.39,0c0-4.44.41-6.39,1.91-6.39s1.91,2,1.91,6.39-.41,6.39-1.91,6.39-1.91-2-1.91-6.39m64.09-.74c0-3.83.3-5.26,1.61-5.26s1.59,1.39,1.63,5.26Zm6.65,4.17A4,4,0,0,1,95,80.44c-1.33,0-3.37-.74-3.46-4.11h7.76c0-.26,0-.78,0-1,0-4.08-1.68-7.13-6-7.13s-6.63,3.37-6.63,7.56,2.24,7.5,6.63,7.5a5.86,5.86,0,0,0,5.65-3.41Zm-67-18.2s3.5,3.5,5.11,5.3v1.37a11.22,11.22,0,0,0-7.5-2.91c-6.54,0-10.65,4.94-10.65,11s3.89,11,10.65,11a10.42,10.42,0,0,0,7.56-3.22v1.3c-2,2.81-5.78,4.63-10.43,4.63-8.33,0-14.07-6-14.07-13.74A13.87,13.87,0,0,1,25.94,62a15.77,15.77,0,0,1,5.26.87Zm90.62,8.87V80.51a.83.83,0,0,0,.94.91,2.81,2.81,0,0,0,.85-.15V82.6a5.68,5.68,0,0,1-2.81.54c-2.26,0-3.59-1.11-3.59-3.46V69.77h-1.54v-1c1.72-1.37,3.72-2.93,5.3-4.26h.85v3.91H124v1.32ZM80,73c0-1.3-.41-2.33-1.54-2.33s-1.59,1-1.59,2.33V81.6h1.33V83H70.94V81.6h1.35V69.77H70.94V68.44h5.72v2.22h.06a4.13,4.13,0,0,1,3.83-2.5,3.76,3.76,0,0,1,3.85,3,13,13,0,0,1,.2,2.35V81.6h1.74V83H80Zm29.33,0c0-1.3-.41-2.33-1.54-2.33s-1.59,1-1.59,2.33V81.6h1.33V83h-7.26V81.6h1.35V69.77h-1.35V68.44H106v2.22h.07a4.12,4.12,0,0,1,3.83-2.5,3.76,3.76,0,0,1,3.85,3,13,13,0,0,1,.2,2.35V81.6h1.74V83h-6.33Z"/></svg>