<?xml version="1.0" encoding="utf-8"?>
<!-- Generator: Adobe Illustrator 18.1.1, SVG Export Plug-In . SVG Version: 6.00 Build 0)  -->
<svg version="1.1" id="Layer_1" xmlns="http://www.w3.org/2000/svg" xmlns:xlink="http://www.w3.org/1999/xlink" x="0px" y="0px"
	 viewBox="0 0 900 272.1" enable-background="new 0 0 900 272.1" xml:space="preserve">
<path d="M729.3,66.5c6.4-0.3,10.7,5.1,11,12.9v51.3c-0.3,7.8-4.5,13.2-11,13h-6.1v3.3h52.9v-3.3l-7.7,0c-6.4,0.2-10.6-5.2-10.9-13
	v-28.9c0-7.2,1.2-13.3,3.2-18.5c5.8-14.7,17.7-12.5,19.7-8.9c0.8,1.5,2.1,3.3,5.3,4.5c4.6,1.8,9.5-0.8,11.4-5.7c2-5.3-1-10-7.5-12.5
	c-9.7-3.7-24.9,3-32.1,22V58.3c0-1-0.8-1.8-1.8-1.8c-0.5,0-0.8,0.2-1.2,0.5c-4.7,3.9-10.6,6.2-17.5,6.2h-13.9v3.3H729.3z"/>
<path d="M158.4,115.3c-0.2,14.5,1.8,30.8,21,30.8c17.1,0,29.8-11.4,32.7-28.2h3.3c-3.3,18.8-17.1,31.4-35.9,31.4
	c-23.9,0-40.6-18.4-40.6-45.3c0-19.8,15.9-45.3,38.2-45.3c24.1,0,36.5,26.9,36.5,35.5c0,1.2-0.6,1.8-1.8,1.8h-53.3V115.3z
	 M193.9,87.1c0-13.1-3.5-25.1-16.9-25.1c-14.3,0-18.6,12-18.6,25.1v5.7h34.1c1,0,1.4-0.6,1.4-1.4V87.1z"/>
<path d="M249,115.3c-0.2,14.5,1.8,30.8,21,30.8c17.2,0,29.8-11.4,32.7-28.2h3.3c-3.3,18.8-17.2,31.4-35.9,31.4
	c-23.9,0-40.6-18.4-40.6-45.3c0-19.8,15.9-45.3,38.2-45.3c24.1,0,36.5,26.9,36.5,35.5c0,1.2-0.6,1.8-1.8,1.8H249V115.3z M284.5,87.1
	c0-13.1-3.5-25.1-16.9-25.1c-14.3,0-18.6,12-18.6,25.1v5.7h34.1c1,0,1.4-0.6,1.4-1.4V87.1z"/>
<polygon points="166,212.5 172.2,212.5 206.1,261.8 206.3,261.8 206.3,212.5 211.9,212.5 211.9,270.8 205.7,270.8 171.7,221.5 
	171.5,221.5 171.5,270.8 166,270.8 "/>
<polygon points="248,212.5 288.3,212.5 288.3,217.3 253.6,217.3 253.6,238.3 286.1,238.3 286.1,243.1 253.6,243.1 253.6,266.1 
	288.7,266.1 288.7,270.8 248,270.8 "/>
<polygon points="315,212.5 321,212.5 334.2,263.6 334.4,263.6 348.6,212.5 355.5,212.5 369.8,263.6 370,263.6 383.3,212.5 
	388.8,212.5 372.8,270.8 366.9,270.8 352.1,218.6 351.9,218.6 337.2,270.8 331.2,270.8 "/>
<polygon points="471.8,246.8 448.8,212.5 455.5,212.5 474.6,242.1 493.8,212.5 500.4,212.5 477.3,246.8 477.3,270.8 471.8,270.8 "/>
<path d="M551.2,211.3c18.3,0,27.4,14.4,27.4,30.4s-9.2,30.4-27.4,30.4c-18.4,0-27.5-14.4-27.5-30.4S532.8,211.3,551.2,211.3
	 M551.2,267.3c15.4,0,21.9-12.9,21.9-25.6c0-12.7-6.5-25.6-21.9-25.6c-15.4,0-22,12.9-22,25.6C529.2,254.4,535.7,267.3,551.2,267.3"
	/>
<path d="M611.7,212.5h26.7c9.6,0,17.7,4.7,17.7,15.2c0,7.4-3.8,13.4-11.4,14.9v0.2c7.6,1,9.8,6.2,10.2,13.2c0.2,4,0.2,12,2.7,14.9
	h-6.1c-1.4-2.3-1.4-6.6-1.6-9.1c-0.5-8.2-1.1-17.2-11.7-16.8h-21.1v25.9h-5.6V212.5z M617.3,240.2H638c6.8,0,12.6-4.2,12.6-11.3
	c0-7.1-4.2-11.6-12.6-11.6h-20.7V240.2z"/>
<polygon points="690.7,212.5 696.2,212.5 696.2,243.9 730.1,212.5 737.6,212.5 711.6,236.6 738.8,270.8 731.7,270.8 707.4,240.4 
	696.2,250.8 696.2,270.8 690.7,270.8 "/>
<path d="M860.4,102.2c-14.9,0-33.5,0.4-33.5,22.2c0,11.4,1.8,20,14.9,20c15.3,0,22-11.4,22-15.5v-26.7H860.4z M847.1,62
	c-15.8,0.2-18.1,11.7-15.4,14.9c1.1,1.3,2.3,3.1,2.3,6.6c0,4.9-4.1,8.6-9.4,8.6c-5.7,0-9-4.5-9-11.4c0-10.4,11-21.8,31.4-21.8
	c15.5,0,33.9,8,33.9,23.7v53.5c0,3.9,0.6,9,6.1,9c4.7,0,7.6-3.9,10.6-8.2l2.3,1.6c-3.9,6.7-9.2,11-18,11c-9.6,0-16.5-5.5-18-12.7
	h-0.4c-6.9,9.2-16.1,12.7-29.6,12.7c-15.9,0-25.5-8-25.5-21.8c0-22.9,30.4-28.6,51.4-28.6h3.9V73.8C863.9,64.2,854.9,62,847.1,62"/>
<path d="M560.4,35.3H560l-20,61.8h41.4L560.4,35.3z M636.9,147h-59.8v-3.3c8.1-0.1,13.6-4,14.4-11.3c0.2-2.1,0.1-4.3-0.4-6.1
	l-8.7-25.9h-43.7l-7.7,23.6c-0.6,2.1-0.8,4.4-0.5,6.8c0.9,8.2,7.2,12.7,16.3,12.8v3.3h-42l0-3.3c9.6-0.2,16.7-4.1,19.3-11.6
	c0.1-0.1,44-132.1,44-132.1h2.2l45.2,130.8c2.9,8.3,10.7,12.6,21.3,12.9V147z"/>
<path d="M41.2,130.8c0.3,7.8,4.4,13.1,10.8,12.9h10v3.3H0v-3.3h9.6c6.4,0.2,10.5-5.1,10.8-12.9V19.4C20.1,11.6,16,6.3,9.6,6.5H0V3.3
	h62.7c23.5,0,49,5.3,49,36.1c0,24.9-28.8,31.4-43.7,33.3v0.4c23.5,2,35.9,7.1,39,34.1l2.9,24.9c1.4,12,7.1,12.9,10.6,12.9
	c3.7,0,6.3-1.2,8.4-2l1.2,2.7c-4.1,1.4-9.2,2.6-16.7,2.6c-24.9,0-26.3-13.3-29.2-36.7l-1.4-12.2c-1.4-12.9-5.1-24.5-28.2-24.5h-4.1
	v-3.3h1c24.1,0,38.2-8.4,38.2-32c0-16.3-5.5-32.9-34.5-32.9H41.2L41.2,130.8z"/>
<path d="M348.3,58.5c0-1-0.8-1.8-1.8-1.8c-0.5,0-0.8,0.2-1.2,0.5c-4.7,3.9-10.6,6.2-17.5,6.2H315v3.3h5c6.4-0.3,10.7,5.1,11,12.9
	l0.1,51.3c-0.3,7.8-4.5,13.1-11,12.9l-5.1,0.1v3.3h48.8v-3.3l-4.5-0.1c-6.4,0.2-10.7-5.1-11-12.9l0-44.6
	c5.9-14.5,15.1-24.1,27.4-24.1c8.2,0,13.3,3.9,13.3,14.1l0,54.5c-0.3,7.8-4.5,13.2-11,13l-5.1,0.1v3.3h48.8v-3.3H417
	c-6.4,0.2-10.7-5.2-11-13l0-41.5c4.1-14.3,14.5-27.1,26.3-27.1c7.8,0,14.3,3.3,14.3,18l0,50.6c-0.3,7.8-4.5,13.2-11,13l-5.1,0.1v3.3
	h49.4v-3.3l-5.2,0c-6.4,0.2-10.6-5.2-10.9-13v-47c0-12.9-6.9-24.7-27.8-24.9c-15.3-0.2-25.5,10.2-29.6,21.8H406
	c-1.8-18.2-14.9-21.8-28-21.8c-15.3,0-23.9,10-29.4,20h-0.4V58.5z"/>
<path d="M675.3,59.3c20.1-3.7,33.2,5,35.2,15.2c1.3,6.8-1,11.9-6.6,12.9c-5.2,1-9.9-1.8-10.9-6.6c-0.7-3.4,0.2-5.4,1-6.9
	c2.1-3.6-3-14.4-18.5-11.5c-14.2,2.6-18.3,14.8-18.3,31.8V112c0,17.8,0.8,34.1,23.7,34.1c20.6,0,29.6-15.5,31-28h3.3
	c-0.6,15.5-14.1,31.2-34.3,31.2c-26.3,0-43.3-18.8-43.3-41.8C637.7,83.5,654.5,63.1,675.3,59.3"/>
<rect fill="none" width="900" height="272.1"/>
</svg>
