<?xml version="1.0" encoding="utf-8"?>
<!-- Generator: Adobe Illustrator 21.0.0, SVG Export Plug-In . SVG Version: 6.00 Build 0)  -->
<svg version="1.1" id="LOGO" xmlns="http://www.w3.org/2000/svg" xmlns:xlink="http://www.w3.org/1999/xlink" x="0px" y="0px"
	 viewBox="0 0 523 137" style="enable-background:new 0 0 523 137;" xml:space="preserve">
<style type="text/css">
	.st0{fill:#093844;}
	.st1{fill:#F37021;}
	.st2{fill:#F7941D;}
	.st3{fill:#FDB913;}
</style>
<g>
	<g>
		<polygon class="st0" points="160.9,39.5 151.4,39.5 151.4,74.4 178.7,74.4 178.7,67.2 160.9,67.2 		"/>
		<path class="st0" d="M206.7,38.8c-5.7,0-10.2,1.6-13.4,4.8c-3.1,3.1-4.7,7.7-4.7,13.4c0,4.1,0.8,7.5,2.4,10.3
			c1.6,2.7,3.7,4.7,6.2,5.9c2.6,1.3,5.9,1.9,9.9,1.9c3.9,0,7.2-0.7,9.8-2.2c2.6-1.4,4.6-3.5,5.9-6.1c1.4-2.6,2.1-6,2.1-10.1
			c0-5.7-1.6-10.1-4.7-13.2C217.1,40.4,212.6,38.8,206.7,38.8z M213.2,65.7c-1.5,1.8-3.7,2.8-6.4,2.8c-2.7,0-4.8-1-6.4-2.8
			s-2.3-4.6-2.3-8.6s0.7-6.9,2.3-8.7c1.6-1.8,3.7-2.8,6.3-2.8c2.7,0,4.8,0.9,6.4,2.7c1.5,1.8,2.3,4.5,2.3,8.2
			C215.4,60.9,214.7,63.9,213.2,65.7z"/>
		<path class="st0" d="M264.3,66l-0.5,0.3c-1.5,0.9-2.9,1.6-4.2,2c-1.2,0.4-2.5,0.6-3.9,0.6c-2.9,0-5.3-1-7-2.9s-2.5-4.9-2.5-9.2
			c0-4,0.8-6.9,2.5-8.8c1.6-2,3.9-3,6.7-3c1.9,0,3.4,0.4,4.7,1.3c1,0.7,1.8,1.7,2.4,2.9l9.2-1.6c-0.6-1.8-1.5-3.3-2.5-4.5
			c-1.2-1.4-2.8-2.5-4.6-3.2c-1.9-0.7-4.9-1.1-8.8-1.1c-4.1,0-7.3,0.6-9.7,1.7c-3,1.5-5.3,3.6-6.9,6.4s-2.4,6.2-2.4,10
			c0,3.7,0.7,6.9,2.2,9.7c1.4,2.8,3.4,4.9,6,6.3s6.1,2.1,10.3,2.1c3.4,0,6.4-0.4,8.9-1.2c2.4-0.7,5.2-2.2,8.3-4.3V55.2h-15.7V61h7.6
			v5H264.3z"/>
		<path class="st0" d="M302.8,38.8c-5.7,0-10.2,1.6-13.4,4.8c-3.1,3.1-4.7,7.7-4.7,13.4c0,4.1,0.8,7.5,2.4,10.3
			c1.6,2.7,3.7,4.7,6.3,5.9c2.6,1.3,5.9,1.9,9.9,1.9c3.9,0,7.2-0.7,9.8-2.2c2.6-1.4,4.6-3.5,5.9-6.1c1.4-2.6,2.1-6,2.1-10.1
			c0-5.7-1.6-10.1-4.7-13.2C313.2,40.4,308.7,38.8,302.8,38.8z M309.3,65.7c-1.5,1.8-3.7,2.8-6.4,2.8c-2.7,0-4.8-1-6.4-2.8
			c-1.5-1.8-2.3-4.6-2.3-8.6s0.8-6.9,2.3-8.7c1.6-1.8,3.7-2.8,6.3-2.8c2.7,0,4.8,0.9,6.4,2.7c1.5,1.8,2.3,4.5,2.3,8.2
			C311.6,60.9,310.8,63.9,309.3,65.7z"/>
		<polygon class="st0" points="365.6,74.4 375.1,74.4 375.1,46.7 386.7,46.7 386.7,39.5 354,39.5 354,46.7 365.6,46.7 		"/>
		<polygon class="st0" points="408.4,58.8 426.2,58.8 426.2,53.2 408.4,53.2 408.4,45.4 427.5,45.4 427.5,39.5 398.9,39.5 
			398.9,74.4 428.1,74.4 428.1,68 408.4,68 		"/>
		<polygon class="st0" points="474.7,39.5 464.6,39.5 457.7,51.8 450.6,39.5 440.3,39.5 451.3,56.2 439.2,74.4 449.6,74.4 
			457.4,61.7 465.2,74.4 475.8,74.4 463.8,56.3 		"/>
		<polygon class="st0" points="496.3,74.4 505.8,74.4 505.8,46.7 517.4,46.7 517.4,39.5 484.7,39.5 484.7,46.7 496.3,46.7 		"/>
		<g>
			<path class="st0" d="M158,99v-5.1l-4.6-6.9h1.9l2.4,3.6c0.4,0.7,0.8,1.4,1.2,2.1c0.4-0.6,0.8-1.3,1.3-2.1l2.3-3.5h1.8l-4.8,6.9
				v5.1H158V99z"/>
			<path class="st0" d="M176.3,93.2c0-2,0.5-3.5,1.6-4.6s2.4-1.7,4.1-1.7c1.1,0,2.1,0.2,3,0.8c0.9,0.5,1.6,1.2,2,2.2
				c0.5,0.9,0.7,2,0.7,3.2s-0.3,2.3-0.7,3.3c-0.5,0.9-1.2,1.7-2.1,2.2s-1.9,0.7-2.9,0.7c-1.1,0-2.1-0.3-3-0.8
				c-0.9-0.6-1.6-1.3-2-2.2C176.5,95.2,176.3,94.2,176.3,93.2z M177.9,93.2c0,1.4,0.4,2.6,1.1,3.4c0.8,0.8,1.8,1.2,2.9,1.2
				c1.2,0,2.2-0.4,2.9-1.2c0.8-0.9,1.1-2.1,1.1-3.6c0-1-0.2-1.8-0.5-2.6c-0.3-0.7-0.8-1.3-1.4-1.7c-0.6-0.4-1.4-0.6-2.1-0.6
				c-1.1,0-2.1,0.4-2.9,1.2C178.3,90.1,177.9,91.4,177.9,93.2z"/>
			<path class="st0" d="M208.5,87.1h1.6V94c0,1.2-0.1,2.2-0.4,2.9c-0.3,0.7-0.8,1.3-1.5,1.7c-0.7,0.5-1.6,0.7-2.8,0.7
				c-1.1,0-2-0.2-2.8-0.6c-0.7-0.4-1.2-0.9-1.5-1.6s-0.4-1.7-0.4-3v-6.9h1.6v6.9c0,1,0.1,1.8,0.3,2.3c0.2,0.5,0.5,0.8,1,1.1
				c0.5,0.3,1,0.4,1.7,0.4c1.2,0,2-0.3,2.5-0.8s0.7-1.6,0.7-3.1L208.5,87.1L208.5,87.1z"/>
			<path class="st0" d="M223.8,99V87.1h5.3c1.1,0,1.9,0.1,2.4,0.3c0.6,0.2,1,0.6,1.3,1.1c0.3,0.6,0.5,1.2,0.5,1.8
				c0,0.9-0.3,1.6-0.8,2.1c-0.5,0.6-1.4,1-2.5,1.1c0.4,0.2,0.7,0.4,0.9,0.6c0.5,0.4,0.9,0.9,1.3,1.6l2.1,3.3h-2l-1.6-2.5
				c-0.4-0.7-0.8-1.2-1.1-1.6c-0.3-0.4-0.6-0.7-0.8-0.8c-0.2-0.2-0.5-0.2-0.7-0.3c-0.2,0-0.5-0.1-0.9-0.1h-1.8V99H223.8z
				 M225.3,92.3h3.4c0.7,0,1.3-0.1,1.7-0.3c0.4-0.1,0.7-0.4,0.9-0.7c0.2-0.3,0.3-0.7,0.3-1.1c0-0.5-0.2-1-0.6-1.4s-1.1-0.5-1.9-0.5
				h-3.8V92.3z"/>
			<path class="st0" d="M265.1,99V88.5h-3.9v-1.4h9.5v1.4h-3.9V99H265.1z"/>
			<path class="st0" d="M280.7,99l4.6-11.9h1.7l4.9,11.9h-1.8l-1.4-3.6h-5l-1.3,3.6H280.7z M284.1,94.1h4.1l-1.2-3.3
				c-0.4-1-0.7-1.8-0.9-2.5c-0.1,0.8-0.4,1.5-0.6,2.3L284.1,94.1z"/>
			<path class="st0" d="M309.7,94.3v-1.4h5.1v4.4c-0.8,0.6-1.6,1.1-2.4,1.4s-1.7,0.5-2.5,0.5c-1.2,0-2.3-0.3-3.2-0.7
				c-0.9-0.5-1.7-1.3-2.2-2.2c-0.5-1-0.7-2.1-0.7-3.2c0-1.2,0.2-2.3,0.7-3.3s1.2-1.7,2.1-2.3c0.9-0.5,2-0.7,3.1-0.7
				c0.9,0,1.6,0.2,2.3,0.4c0.7,0.3,1.2,0.7,1.6,1.2s0.7,1.1,0.9,1.9l-1.4,0.4c-0.2-0.6-0.4-1.1-0.7-1.4c-0.3-0.3-0.7-0.6-1.1-0.8
				c-0.5-0.2-1-0.3-1.6-0.3c-0.7,0-1.3,0.1-1.9,0.3c-0.5,0.3-1,0.5-1.3,0.9s-0.6,0.8-0.8,1.2c-0.3,0.7-0.4,1.5-0.4,2.4
				c0,1.1,0.2,1.9,0.5,2.6c0.4,0.7,0.9,1.3,1.6,1.6c0.7,0.3,1.4,0.5,2.2,0.5c0.7,0,1.4-0.1,2-0.4s1.1-0.6,1.5-0.9v-2.2h-3.4V94.3z"
				/>
			<path class="st0" d="M328,99V87.1h1.6v10.5h5.9V99H328z"/>
			<path class="st0" d="M348.6,99V87.1h1.6V99H348.6z"/>
			<path class="st0" d="M363.9,99V87.1h1.6l6.2,9.4v-9.4h1.5V99h-1.6l-6.3-9.4V99H363.9z"/>
			<path class="st0" d="M387,99V87.1h8.6v1.4h-7.1v3.6h6.6v1.4h-6.6v4.1h7.3V99H387z"/>
			<path class="st0" d="M424.8,99V87.1h1.6V92h6.2v-4.9h1.6V99h-1.6v-5.6h-6.2V99H424.8z"/>
			<path class="st0" d="M447.8,99V87.1h8.6v1.4h-7.1v3.6h6.6v1.4h-6.6v4.1h7.3V99H447.8z"/>
			<path class="st0" d="M469.9,99V87.1h5.3c1.1,0,1.9,0.1,2.4,0.3c0.6,0.2,1,0.6,1.4,1.1c0.3,0.6,0.5,1.2,0.5,1.8
				c0,0.9-0.3,1.6-0.8,2.1c-0.6,0.6-1.4,1-2.5,1.1c0.4,0.2,0.7,0.4,0.9,0.6c0.5,0.4,0.9,0.9,1.3,1.6l2.1,3.3h-2l-1.5-2.5
				c-0.5-0.7-0.9-1.2-1.2-1.6s-0.6-0.7-0.8-0.8c-0.2-0.2-0.5-0.2-0.7-0.3c-0.2,0-0.5-0.1-0.9-0.1h-1.8V99H469.9z M471.5,92.3h3.4
				c0.7,0,1.3-0.1,1.7-0.3c0.4-0.1,0.7-0.4,1-0.7c0.2-0.3,0.3-0.7,0.3-1.1c0-0.5-0.2-1-0.6-1.4c-0.4-0.4-1-0.5-2-0.5h-3.8
				L471.5,92.3L471.5,92.3z"/>
			<path class="st0" d="M492.9,99V87.1h8.6v1.4h-7v3.6h6.6v1.4h-6.6v4.1h7.3V99H492.9z"/>
		</g>
	</g>
	<g>
		<path class="st1" d="M42.5,133.1c3.7,0.1,8-1.5,13.2-5.1c4.2-3,40.2-26.3,52.5-34.3c6.4-4.2,7.4-5.6,7.4-15.7c0,0,0-10.4,0-15.3
			c0-9.7,0.6-12.4-5-16.5c6.2,4.5,5.3,9.2,0.1,12.4c-4.4,2.7-78.6,50.2-78.6,50.2v6.6C32.6,127.5,37.8,132.9,42.5,133.1z"/>
		<path class="st2" d="M110.5,46.2c-48-31.3-47.9-31.1-54.9-36c-5.2-3.6-9.5-5.5-13.2-5.4c-4.9,0.3-10.1,6-10.5,18v6.6l61.4,40.1
			c0,0,15.9-10.2,17.2-10.9C115.9,55.4,116.7,50.7,110.5,46.2z"/>
		<path class="st3" d="M12.4,121.5c4.4,2.3,25.5,12,30.1,11.6c-4.7-0.2-9.9-5.7-10.5-17.8V22.7c0.6-12,5.6-17.6,10.5-17.8
			c-4.6-0.4-25.7,9.3-30.1,11.6C6.2,19.8,4.6,24,4.6,31.2v75.7C4.6,114,6.1,118.3,12.4,121.5z"/>
	</g>
</g>
</svg>
